<svg xmlns="http://www.w3.org/2000/svg" width="1200" height="120" viewBox="0 0 1200 120" preserveAspectRatio="none">
  <defs>
    <linearGradient id="gblade" x1="0" y1="1" x2="0" y2="0">
      <stop offset="0" stop-color="#1f3d10"/>
      <stop offset="0.5" stop-color="#3f7a1f"/>
      <stop offset="1" stop-color="#6cb33a"/>
    </linearGradient>
    <linearGradient id="gblade2" x1="0" y1="1" x2="0" y2="0">
      <stop offset="0" stop-color="#17300b"/>
      <stop offset="1" stop-color="#4f9128"/>
    </linearGradient>
  </defs>
  <g id="back" fill="url(#gblade2)" opacity="0.85">
    <!-- back layer blades generated densely -->
    <path d="M0 120 Q6 60 2 8 Q14 58 12 120 Z"/>
    <path d="M30 120 Q36 50 28 4 Q46 52 42 120 Z"/>
    <path d="M70 120 Q74 64 80 14 Q86 60 82 120 Z"/>
    <path d="M110 120 Q116 46 106 6 Q126 50 122 120 Z"/>
    <path d="M150 120 Q154 66 162 18 Q168 58 160 120 Z"/>
    <path d="M195 120 Q200 48 190 4 Q212 52 208 120 Z"/>
    <path d="M240 120 Q244 62 252 12 Q258 58 248 120 Z"/>
    <path d="M285 120 Q292 50 282 6 Q302 54 296 120 Z"/>
    <path d="M330 120 Q334 64 342 16 Q348 60 338 120 Z"/>
    <path d="M375 120 Q382 46 372 4 Q392 52 386 120 Z"/>
    <path d="M420 120 Q424 66 432 18 Q438 58 428 120 Z"/>
    <path d="M465 120 Q472 48 462 6 Q482 54 476 120 Z"/>
    <path d="M510 120 Q514 62 522 12 Q528 58 518 120 Z"/>
    <path d="M555 120 Q562 50 552 4 Q572 54 566 120 Z"/>
    <path d="M600 120 Q604 64 612 16 Q618 60 608 120 Z"/>
    <path d="M645 120 Q652 46 642 6 Q662 52 656 120 Z"/>
    <path d="M690 120 Q694 66 702 18 Q708 58 698 120 Z"/>
    <path d="M735 120 Q742 48 732 4 Q752 54 746 120 Z"/>
    <path d="M780 120 Q784 62 792 12 Q798 58 788 120 Z"/>
    <path d="M825 120 Q832 50 822 6 Q842 54 836 120 Z"/>
    <path d="M870 120 Q874 64 882 16 Q888 60 878 120 Z"/>
    <path d="M915 120 Q922 46 912 4 Q932 52 926 120 Z"/>
    <path d="M960 120 Q964 66 972 18 Q978 58 968 120 Z"/>
    <path d="M1005 120 Q1012 48 1002 6 Q1022 54 1016 120 Z"/>
    <path d="M1050 120 Q1054 62 1062 12 Q1068 58 1058 120 Z"/>
    <path d="M1095 120 Q1102 50 1092 4 Q1112 54 1106 120 Z"/>
    <path d="M1140 120 Q1144 64 1152 16 Q1158 60 1148 120 Z"/>
    <path d="M1185 120 Q1192 46 1182 6 Q1202 52 1196 120 Z"/>
  </g>
  <g id="front" fill="url(#gblade)">
    <path d="M15 120 Q22 40 12 2 Q34 42 30 120 Z"/>
    <path d="M55 120 Q60 56 68 10 Q76 52 64 120 Z"/>
    <path d="M95 120 Q102 38 90 2 Q114 44 108 120 Z"/>
    <path d="M135 120 Q140 58 148 12 Q156 50 144 120 Z"/>
    <path d="M178 120 Q186 36 174 2 Q198 44 190 120 Z"/>
    <path d="M222 120 Q228 56 236 10 Q244 52 232 120 Z"/>
    <path d="M265 120 Q272 38 260 2 Q284 44 278 120 Z"/>
    <path d="M310 120 Q316 58 324 12 Q332 50 320 120 Z"/>
    <path d="M355 120 Q362 36 350 2 Q374 44 366 120 Z"/>
    <path d="M400 120 Q406 56 414 10 Q422 52 410 120 Z"/>
    <path d="M445 120 Q452 38 440 2 Q464 44 458 120 Z"/>
    <path d="M490 120 Q496 58 504 12 Q512 50 500 120 Z"/>
    <path d="M535 120 Q542 36 530 2 Q554 44 546 120 Z"/>
    <path d="M580 120 Q586 56 594 10 Q602 52 590 120 Z"/>
    <path d="M625 120 Q632 38 620 2 Q644 44 638 120 Z"/>
    <path d="M670 120 Q676 58 684 12 Q692 50 680 120 Z"/>
    <path d="M715 120 Q722 36 710 2 Q734 44 726 120 Z"/>
    <path d="M760 120 Q766 56 774 10 Q782 52 770 120 Z"/>
    <path d="M805 120 Q812 38 800 2 Q824 44 818 120 Z"/>
    <path d="M850 120 Q856 58 864 12 Q872 50 860 120 Z"/>
    <path d="M895 120 Q902 36 890 2 Q914 44 906 120 Z"/>
    <path d="M940 120 Q946 56 954 10 Q962 52 950 120 Z"/>
    <path d="M985 120 Q992 38 980 2 Q1004 44 998 120 Z"/>
    <path d="M1030 120 Q1036 58 1044 12 Q1052 50 1040 120 Z"/>
    <path d="M1075 120 Q1082 36 1070 2 Q1094 44 1086 120 Z"/>
    <path d="M1120 120 Q1126 56 1134 10 Q1142 52 1130 120 Z"/>
    <path d="M1165 120 Q1172 38 1160 2 Q1184 44 1178 120 Z"/>
  </g>
</svg>
