<svg xmlns="http://www.w3.org/2000/svg" width="1200" height="120" viewBox="0 0 1200 120" preserveAspectRatio="none">
  <path d="M0,0 L1200,0 L1200,81.4 L 1200.0,81.4 L 1173.3,76.8 L 1146.7,112.0 L 1120.0,49.9 L 1093.3,95.7 L 1066.7,86.2 L 1040.0,67.7 L 1013.3,86.5 L 986.7,93.1 L 960.0,83.8 L 933.3,87.8 L 906.7,76.7 L 880.0,58.6 L 853.3,56.1 L 826.7,99.4 L 800.0,97.7 L 773.3,92.1 L 746.7,43.1 L 720.0,43.4 L 693.3,42.1 L 666.7,61.9 L 640.0,109.8 L 613.3,58.6 L 586.7,112.0 L 560.0,37.6 L 533.3,61.7 L 506.7,60.8 L 480.0,66.5 L 453.3,24.0 L 426.7,92.0 L 400.0,92.9 L 373.3,32.8 L 346.7,62.5 L 320.0,43.2 L 293.3,35.7 L 266.7,48.3 L 240.0,67.8 L 213.3,39.3 L 186.7,67.9 L 160.0,88.0 L 133.3,58.2 L 106.7,81.0 L 80.0,55.1 L 53.3,110.0 L 26.7,79.3 L 0.0,65.3 Z" fill="#0f0b07"/>
  <path d="M0,0 L1200,0 L1200,81.4 L 1200.0,81.4 L 1173.3,76.8 L 1146.7,112.0 L 1120.0,49.9 L 1093.3,95.7 L 1066.7,86.2 L 1040.0,67.7 L 1013.3,86.5 L 986.7,93.1 L 960.0,83.8 L 933.3,87.8 L 906.7,76.7 L 880.0,58.6 L 853.3,56.1 L 826.7,99.4 L 800.0,97.7 L 773.3,92.1 L 746.7,43.1 L 720.0,43.4 L 693.3,42.1 L 666.7,61.9 L 640.0,109.8 L 613.3,58.6 L 586.7,112.0 L 560.0,37.6 L 533.3,61.7 L 506.7,60.8 L 480.0,66.5 L 453.3,24.0 L 426.7,92.0 L 400.0,92.9 L 373.3,32.8 L 346.7,62.5 L 320.0,43.2 L 293.3,35.7 L 266.7,48.3 L 240.0,67.8 L 213.3,39.3 L 186.7,67.9 L 160.0,88.0 L 133.3,58.2 L 106.7,81.0 L 80.0,55.1 L 53.3,110.0 L 26.7,79.3 L 0.0,65.3 Z" fill="none" stroke="#3a2914" stroke-width="2" opacity="0.6"/>
</svg>