<svg xmlns="http://www.w3.org/2000/svg" width="1200" height="120" viewBox="0 0 1200 120" preserveAspectRatio="none">
  <path d="M0,120 L1200,120 L1200,92.4 L 1200.0,92.4 L 1173.3,45.1 L 1146.7,72.8 L 1120.0,40.7 L 1093.3,84.5 L 1066.7,45.4 L 1040.0,106.3 L 1013.3,78.6 L 986.7,59.4 L 960.0,91.7 L 933.3,50.5 L 906.7,99.7 L 880.0,51.0 L 853.3,101.9 L 826.7,34.4 L 800.0,35.3 L 773.3,63.2 L 746.7,22.5 L 720.0,55.3 L 693.3,30.8 L 666.7,91.4 L 640.0,47.1 L 613.3,43.4 L 586.7,66.3 L 560.0,61.2 L 533.3,56.5 L 506.7,38.1 L 480.0,96.1 L 453.3,35.8 L 426.7,83.9 L 400.0,110.2 L 373.3,104.7 L 346.7,63.9 L 320.0,44.7 L 293.3,82.3 L 266.7,91.7 L 240.0,90.9 L 213.3,53.7 L 186.7,29.9 L 160.0,91.8 L 133.3,60.8 L 106.7,58.3 L 80.0,61.8 L 53.3,54.2 L 26.7,77.8 L 0.0,94.0 Z" fill="#0f0b07"/>
  <path d="M0,120 L1200,120 L1200,92.4 L 1200.0,92.4 L 1173.3,45.1 L 1146.7,72.8 L 1120.0,40.7 L 1093.3,84.5 L 1066.7,45.4 L 1040.0,106.3 L 1013.3,78.6 L 986.7,59.4 L 960.0,91.7 L 933.3,50.5 L 906.7,99.7 L 880.0,51.0 L 853.3,101.9 L 826.7,34.4 L 800.0,35.3 L 773.3,63.2 L 746.7,22.5 L 720.0,55.3 L 693.3,30.8 L 666.7,91.4 L 640.0,47.1 L 613.3,43.4 L 586.7,66.3 L 560.0,61.2 L 533.3,56.5 L 506.7,38.1 L 480.0,96.1 L 453.3,35.8 L 426.7,83.9 L 400.0,110.2 L 373.3,104.7 L 346.7,63.9 L 320.0,44.7 L 293.3,82.3 L 266.7,91.7 L 240.0,90.9 L 213.3,53.7 L 186.7,29.9 L 160.0,91.8 L 133.3,60.8 L 106.7,58.3 L 80.0,61.8 L 53.3,54.2 L 26.7,77.8 L 0.0,94.0 Z" fill="none" stroke="#3a2914" stroke-width="2" opacity="0.6"/>
</svg>